<?xml version="1.0" encoding="UTF-8"?>
<svg version="1.1" xmlns="http://www.w3.org/2000/svg" width="512" height="512">
<path d="M0 0 C9.48163739 8.29199375 16.94707304 19.01139194 23 30 C23.90234375 29.7834375 24.8046875 29.566875 25.734375 29.34375 C57.68582648 22.36613205 91.28559336 27.55662652 119 45 C123.53595874 48.08650294 127.78210063 51.49633159 132 55 C132.82242187 55.66902344 133.64484375 56.33804688 134.4921875 57.02734375 C155.79288277 75.04817418 169.76104371 103.47798679 173 131 C173.28678424 135.92045187 173.33473906 140.82201326 173.3125 145.75 C173.31001251 146.41085602 173.30752502 147.07171204 173.30496216 147.75259399 C173.11894968 179.73466117 160.58542394 208.29534514 138.3125 231.125 C124.98244051 244.28026026 102.62780223 261 83 261 C83 293.67 83 326.34 83 360 C-26.56 360 -136.12 360 -249 360 C-249 327.33 -249 294.66 -249 261 C-251.31 260.67 -253.62 260.34 -256 260 C-275.11685213 254.04597398 -290.54578072 243.59354773 -305 230 C-305.60199219 229.46246094 -306.20398438 228.92492187 -306.82421875 228.37109375 C-325.38956151 211.10402671 -337.94202076 182.72950807 -339.1640625 157.63037109 C-340.2071718 124.30737522 -333.52799412 95.08868228 -312 69 C-311.35417969 68.20207031 -310.70835937 67.40414062 -310.04296875 66.58203125 C-304.98628073 60.59845541 -299.2107232 55.74989112 -293 51 C-292.20851563 50.39285156 -291.41703125 49.78570312 -290.6015625 49.16015625 C-264.71155082 30.19421746 -232.45265264 23.12395502 -200.74609375 27.64453125 C-196.0648925 28.44600965 -191.50828707 29.49723764 -187 31 C-186.73058594 30.27941406 -186.46117187 29.55882812 -186.18359375 28.81640625 C-181.90326078 18.6311915 -174.5509695 10.82655233 -167 3 C-166.03126953 1.93652344 -166.03126953 1.93652344 -165.04296875 0.8515625 C-149.8406265 -15.37751746 -129.35017351 -24.88283858 -108 -30 C-106.99839844 -30.24492187 -105.99679688 -30.48984375 -104.96484375 -30.7421875 C-66.30466901 -38.33893785 -29.1370447 -25.1318014 0 0 Z " fill="#000000" transform="translate(339,47)"/>
<path d="M0 0 C109.56 0 219.12 0 332 0 C332 20.13 332 40.26 332 61 C222.44 61 112.88 61 0 61 C0 40.87 0 20.74 0 0 Z " fill="#000000" transform="translate(90,436)"/>
</svg>
