<?xml version="1.0" encoding="UTF-8"?>
<svg version="1.1" xmlns="http://www.w3.org/2000/svg" width="150" height="42">
<path d="M0 0 C1.6015625 0.97265625 1.6015625 0.97265625 2.6015625 1.97265625 C2.97242343 7.81371585 2.97242343 7.81371585 2.6015625 9.97265625 C1.6115625 10.63265625 0.6215625 11.29265625 -0.3984375 11.97265625 C-0.7284375 13.62265625 -1.0584375 15.27265625 -1.3984375 16.97265625 C-7.3384375 16.97265625 -13.2784375 16.97265625 -19.3984375 16.97265625 C-19.7284375 15.32265625 -20.0584375 13.67265625 -20.3984375 11.97265625 C-20.9140625 11.49828125 -21.4296875 11.02390625 -21.9609375 10.53515625 C-23.3984375 8.97265625 -23.3984375 8.97265625 -23.8984375 6.03515625 C-23.3984375 2.97265625 -23.3984375 2.97265625 -21.2109375 0.72265625 C-13.66837293 -3.97049504 -7.80970659 -4.20638637 0 0 Z " fill="#000000" transform="translate(27.3984375,11.02734375)"/>
<path d="M0 0 C0.80767822 0.10973145 1.61535645 0.21946289 2.44750977 0.33251953 C3.36874634 0.47343018 3.36874634 0.47343018 4.30859375 0.6171875 C4.39563198 4.05452813 4.44899647 7.49158587 4.49609375 10.9296875 C4.53379883 12.39438477 4.53379883 12.39438477 4.57226562 13.88867188 C4.58676758 15.29536133 4.58676758 15.29536133 4.6015625 16.73046875 C4.62512817 18.02658081 4.62512817 18.02658081 4.64916992 19.34887695 C4.23650373 22.09732252 3.49490336 22.95672448 1.30859375 24.6171875 C-0.62890625 24.98046875 -0.62890625 24.98046875 -2.69140625 24.9296875 C-3.71234375 24.92388672 -3.71234375 24.92388672 -4.75390625 24.91796875 C-6.69140625 24.6171875 -6.69140625 24.6171875 -9.69140625 22.6171875 C-9.69140625 21.2971875 -9.69140625 19.9771875 -9.69140625 18.6171875 C-8.85609375 18.83375 -8.85609375 18.83375 -8.00390625 19.0546875 C-5.5775643 19.64487878 -3.1423428 20.1406165 -0.69140625 20.6171875 C-0.03140625 19.6271875 0.62859375 18.6371875 1.30859375 17.6171875 C0.42171875 17.8853125 -0.46515625 18.1534375 -1.37890625 18.4296875 C-4.69140625 18.6171875 -4.69140625 18.6171875 -7.56640625 16.7421875 C-10.02584657 13.1253635 -10.44384042 11.07117818 -10.1640625 6.78125 C-9.69140625 4.6171875 -9.69140625 4.6171875 -7.75390625 1.4921875 C-4.37407826 -0.57709494 -3.72779064 -0.53398996 0 0 Z M-4.69140625 3.6171875 C-7.25827992 7.467498 -6.52429349 9.20288513 -5.69140625 13.6171875 C-4.04140625 13.9471875 -2.39140625 14.2771875 -0.69140625 14.6171875 C1.87546742 10.766877 1.14148099 9.03148987 0.30859375 4.6171875 C-1.34140625 4.2871875 -2.99140625 3.9571875 -4.69140625 3.6171875 Z " fill="#000000" transform="translate(110.69140625,12.3828125)"/>
<path d="M0 0 C2.93447357 2.93447357 2.46158423 6.18259456 2.625 10.125 C2.66367188 10.87910156 2.70234375 11.63320313 2.7421875 12.41015625 C2.83651031 14.27303184 2.91934662 16.13648255 3 18 C2.21625 17.814375 1.4325 17.62875 0.625 17.4375 C-1.97089775 16.74037734 -1.97089775 16.74037734 -4 18 C-9.28923988 18.45014808 -9.28923988 18.45014808 -11.875 16.8125 C-13.40659584 14.34492892 -13.42822025 12.85480169 -13 10 C-12 8.25 -12 8.25 -10 7 C-7.31943869 6.45542837 -4.73709108 6.22435173 -2 6 C-2.33 5.34 -2.66 4.68 -3 4 C-4.65 4 -6.3 4 -8 4 C-8.33 4.66 -8.66 5.32 -9 6 C-10.32 5.67 -11.64 5.34 -13 5 C-9.5853283 -1.34153316 -6.90793157 -1.38158631 0 0 Z M-9 11 C-9 11.99 -9 12.98 -9 14 C-5.535 13.505 -5.535 13.505 -2 13 C-2 12.01 -2 11.02 -2 10 C-5.62885324 9.84850702 -5.62885324 9.84850702 -9 11 Z " fill="#000000" transform="translate(81,13)"/>
<path d="M0 0 C1.8125 1.125 1.8125 1.125 3 3 C3.6875 6.6875 3.6875 6.6875 4 10 C-1.94 10.495 -1.94 10.495 -8 11 C-7.67 11.66 -7.34 12.32 -7 13 C-3.97065509 13.65772428 -3.97065509 13.65772428 -1 14 C-0.67 13.01 -0.34 12.02 0 11 C1.32 11.66 2.64 12.32 4 13 C-0.10780669 17.83271375 -0.10780669 17.83271375 -4 18.5625 C-7.92509607 17.82654449 -9.46508106 17.13137045 -12 14 C-12.77083601 9.6222332 -12.9782175 5.63794558 -10.65625 1.75 C-7.38159697 -1.71001074 -4.30469004 -1.07617251 0 0 Z M-7 3 C-7.99 4.485 -7.99 4.485 -9 6 C-6.03 6 -3.06 6 0 6 C-0.66 5.01 -1.32 4.02 -2 3 C-4.5 2.5 -4.5 2.5 -7 3 Z " fill="#000000" transform="translate(133,13)"/>
<path d="M0 0 C1.32 0 2.64 0 4 0 C4 6.93 4 13.86 4 21 C7.63 21 11.26 21 15 21 C15 22.32 15 23.64 15 25 C10.05 25 5.1 25 0 25 C0 16.75 0 8.5 0 0 Z " fill="#000000" transform="translate(49,6)"/>
<path d="M0 0 C0.99 0 1.98 0 3 0 C3 10.56 3 21.12 3 32 C2.01 32 1.02 32 0 32 C0 21.44 0 10.88 0 0 Z " fill="#000000" transform="translate(39,6)"/>
<path d="M0 0 C0 0.99 0 1.98 0 3 C-1.32 3.33 -2.64 3.66 -4 4 C-4.33 8.62 -4.66 13.24 -5 18 C-6.32 18 -7.64 18 -9 18 C-9 12.06 -9 6.12 -9 0 C-3.375 -1.125 -3.375 -1.125 0 0 Z " fill="#000000" transform="translate(98,13)"/>
<path d="M0 0 C5.94 0 11.88 0 18 0 C18 0.99 18 1.98 18 3 C12.06 3 6.12 3 0 3 C0 2.01 0 1.02 0 0 Z " fill="#000000" transform="translate(8,29)"/>
</svg>
