<?xml version="1.0" encoding="UTF-8"?>
<svg version="1.1" xmlns="http://www.w3.org/2000/svg" width="225" height="225">
<path d="M0 0 C74.25 0 148.5 0 225 0 C225 74.25 225 148.5 225 225 C150.75 225 76.5 225 0 225 C0 150.75 0 76.5 0 0 Z " fill="#FEFEFE" transform="translate(0,0)"/>
<path d="M0 0 C51.15 0 102.3 0 155 0 C152.96930127 4.06139746 150.52802238 6.83434496 147.4375 10.0625 C143.69491286 14.03639248 140.08455869 18.03376195 136.6875 22.3125 C132.23318811 27.87226156 127.36364254 32.98352892 122.46020508 38.14306641 C118.28559958 42.55962431 114.3800033 47.03769517 110.7109375 51.88671875 C108.63909188 54.44577921 106.34187799 56.68567351 104 59 C102.01973921 61.0840344 100.07125991 63.19672914 98.125 65.3125 C97.32956787 66.17560791 97.32956787 66.17560791 96.51806641 67.05615234 C93.21497564 70.65024651 89.96695476 74.28454499 86.7734375 77.9765625 C84.54861908 80.51501171 82.27496681 83.00641776 80 85.5 C76.54356229 89.29009082 73.13156146 93.11056033 69.76953125 96.984375 C67.74885044 99.28607764 65.68687382 101.54764379 63.625 103.8125 C59.51669486 108.3506621 55.65722427 113.05714126 51.84765625 117.84765625 C50 120 50 120 48 121 C48.309375 120.236875 48.61875 119.47375 48.9375 118.6875 C50.63451274 114.39505602 51.13334246 112.64802518 49.5625 108.3125 C49.27503906 107.50425781 48.98757812 106.69601563 48.69140625 105.86328125 C48.46324219 105.24839844 48.23507813 104.63351563 48 104 C46.9275 104.515625 45.855 105.03125 44.75 105.5625 C42.40737472 106.56580618 41.26052946 107.02112401 38.6875 106.8125 C35.12993531 105.09959848 34.2985242 102.52456568 33 99 C32.195625 99.556875 31.39125 100.11375 30.5625 100.6875 C25.54751822 102.53512487 22.72841273 101.11852223 18 99 C15.97854961 98.02924699 13.98303669 97.02382201 11.99609375 95.984375 C8.7577971 94.38740679 5.39816602 93.21363072 2 92 C2 91.67 2 91.34 2 91 C4.71003427 90.8641965 7.41318941 90.76555376 10.125 90.6875 C10.88554688 90.64560547 11.64609375 90.60371094 12.4296875 90.56054688 C16.65814528 90.46941632 19.14961921 90.69375224 22.41796875 93.515625 C23.27003906 94.33546875 24.12210938 95.1553125 25 96 C27.22286468 96.25695267 27.22286468 96.25695267 29 95 C29.474375 94.319375 29.94875 93.63875 30.4375 92.9375 C32 91 32 91 34.4375 90.4375 C37.99580448 91.21859123 39.01357089 93.05714206 41 96 C43.46800047 94.84826645 45.04783565 93.95216435 47 92 C50.6170168 91.41345673 51.77792378 91.84207914 54.8125 94 C55.8953125 94.99 55.8953125 94.99 57 96 C57.5775 95.360625 58.155 94.72125 58.75 94.0625 C61 92 61 92 62.99108887 91.57116699 C66.65444478 90.52961371 68.14500338 86.63405679 70.03125 83.53125 C71.01089481 81.96823328 71.99138928 80.40574883 72.97265625 78.84375 C73.72409912 77.6362207 73.72409912 77.6362207 74.49072266 76.40429688 C76.84222451 72.65832627 79.27959114 68.97049867 81.71875 65.28125 C82.68119666 63.81914671 83.64343534 62.35690648 84.60546875 60.89453125 C86.05274213 58.69700073 87.50024803 56.49962348 88.94775391 54.30224609 C94.37523135 46.06119951 99.78786192 37.81094776 105.15625 29.53125 C105.62808716 28.804823 106.09992432 28.078396 106.58605957 27.32995605 C108.93005073 23.74496698 108.93005073 23.74496698 111 20 C110.44957031 19.97421875 109.89914063 19.9484375 109.33203125 19.921875 C100.01401579 19.28622743 90.95232544 17.36221377 81.80810547 15.55273438 C77.2719274 14.65985425 72.72967824 13.79924231 68.1875 12.9375 C66.44008727 12.60555768 64.69269111 12.27352815 62.9453125 11.94140625 C61.69476074 11.70381592 61.69476074 11.70381592 60.41894531 11.46142578 C58.15095432 11.02879528 55.88396283 10.59129178 53.6171875 10.15234375 C52.26563709 9.89316613 50.91407531 9.63404774 49.5625 9.375 C48.42941406 9.15585937 47.29632813 8.93671875 46.12890625 8.7109375 C42.58457307 8.06777521 39.02468262 7.57427186 35.45703125 7.078125 C27.97784428 6.02609218 20.55496125 4.72733157 13.125 3.375 C11.85269531 3.14554688 10.58039062 2.91609375 9.26953125 2.6796875 C6.17927212 2.12204675 3.08944577 1.56212623 0 1 C0 0.67 0 0.34 0 0 Z " fill="#080808" transform="translate(35,51)"/>
<path d="M0 0 C5.74679655 1.02766244 11.36829629 2.3352231 17 3.875 C25.60229214 6.21707749 34.2860476 8.12345584 43 10 C43 10.33 43 10.66 43 11 C40.46045692 11.53384694 37.9193065 12.05230194 35.375 12.5625 C34.66214844 12.71396484 33.94929688 12.86542969 33.21484375 13.02148438 C24.11601455 14.81620757 18.56575726 12.00707954 10.6875 7.5625 C9.76904297 7.05912109 8.85058594 6.55574219 7.90429688 6.03710938 C1.13480463 2.26960925 1.13480463 2.26960925 0 0 Z " fill="#101010" transform="translate(56,79)"/>
</svg>
